# Blender v2.90.1 OBJ File: 'armoire.blend'
# www.blender.org
mtllib armoire.mtl
o Cube_Cube.001
v -0.702835 1.427209 0.280784
v -0.702835 1.495384 0.280784
v -0.702835 1.427209 -0.280784
v -0.702835 1.495384 -0.280784
v 0.680811 1.427209 0.280784
v 0.680811 1.495384 0.280784
v 0.680811 1.427209 -0.280784
v 0.680811 1.495384 -0.280784
v 0.622525 1.427209 -0.280784
v 0.622525 1.495384 -0.280784
v 0.622525 1.427209 0.280784
v 0.622525 1.495384 0.280784
v 0.680811 -1.380290 0.280784
v 0.680811 -1.380290 -0.280784
v 0.622525 -1.380290 0.280784
v 0.622525 -1.380290 -0.280784
v -0.642912 1.427209 -0.280784
v -0.642912 1.495384 0.280784
v -0.642912 1.495384 -0.280784
v -0.642912 1.427209 0.280784
v -0.702835 -1.380290 -0.280784
v -0.702835 -1.380290 0.280784
v -0.642912 -1.380290 -0.280784
v -0.642912 -1.380290 0.280784
v -0.642912 -1.315817 -0.280784
v -0.702835 -1.315817 -0.280784
v -0.702835 -1.315817 0.280784
v -0.642912 -1.315817 0.280784
v 0.622525 -1.315743 -0.280784
v 0.622525 -1.315743 0.280784
v 0.680811 -1.315743 0.280784
v 0.680811 -1.315743 -0.280784
v -0.100683 1.495384 -0.280784
v -0.100683 1.427209 0.280784
v -0.100683 1.427209 -0.280784
v -0.100683 1.495384 0.280784
v -0.132537 1.427209 -0.280784
v -0.132537 1.495384 0.280784
v -0.132537 1.495384 -0.280784
v -0.132537 1.427209 0.280784
v -0.132537 0.874617 0.280784
v -0.100683 0.874617 0.280784
v -0.100683 0.874617 -0.280784
v -0.132537 0.874617 -0.280784
v -0.132537 0.907206 0.280784
v -0.100683 0.907206 0.280784
v -0.132537 0.907206 -0.280784
v -0.100683 0.907206 -0.280784
v -0.642912 0.874735 -0.280784
v -0.642912 0.874735 0.280784
v -0.642912 0.907322 0.280784
v -0.642912 0.907322 -0.280784
v -0.702835 0.874735 -0.280784
v -0.702835 0.874735 0.280784
v 0.250378 0.874617 -0.280784
v 0.250378 0.907206 -0.280784
v -0.702835 0.907322 -0.280784
v -0.702835 0.907322 0.280784
v 0.250378 0.874617 0.280784
v 0.250378 0.907206 0.280784
v 0.214701 0.874617 0.280784
v 0.214701 0.874617 -0.280784
v 0.214701 0.907206 0.280784
v 0.214701 0.907206 -0.280784
v 0.250378 0.315350 -0.280784
v 0.250378 0.315350 0.280784
v 0.214701 0.315350 0.280784
v 0.214701 0.315350 -0.280784
v 0.250378 0.597896 0.280784
v 0.250378 0.597896 -0.280784
v 0.214701 0.597896 -0.280784
v 0.214701 0.597896 0.280784
v 0.250378 0.629230 -0.280784
v 0.214701 0.629230 -0.280784
v 0.214701 0.629230 0.280784
v 0.250378 0.629230 0.280784
v 0.622525 0.629120 0.280784
v 0.622525 0.597990 0.280784
v 0.622525 0.597990 -0.280784
v 0.622525 0.629120 -0.280784
v 0.680811 0.597990 -0.280784
v 0.214701 0.348665 -0.280784
v 0.680811 0.597990 0.280784
v 0.250378 0.348665 0.280784
v 0.680811 0.629120 -0.280784
v 0.250378 0.348665 -0.280784
v 0.214701 0.348665 0.280784
v 0.680811 0.629120 0.280784
v -0.642912 0.348726 -0.280784
v -0.642912 0.348726 0.280784
v -0.642912 0.315168 -0.280784
v -0.642912 0.315168 0.280784
v -0.702835 0.315168 -0.280784
v -0.702835 0.315168 0.280784
v -0.136251 0.315275 -0.280784
v -0.136251 0.348690 0.280784
v -0.702835 0.348726 -0.280784
v -0.702835 0.348726 0.280784
v -0.136251 0.348690 -0.280784
v -0.136251 0.315275 0.280784
v -0.104077 0.348688 -0.280784
v -0.104077 0.315282 0.280784
v -0.104077 0.348688 0.280784
v -0.104077 0.315282 -0.280784
v -0.136251 -0.233770 0.280784
v -0.136251 -0.233770 -0.280784
v -0.104077 -0.233763 -0.280784
v -0.104077 -0.233763 0.280784
v -0.104077 -0.202810 -0.280784
v -0.136251 -0.202817 -0.280784
v -0.104077 -0.202810 0.280784
v -0.136251 -0.202817 0.280784
v 0.622525 -0.233660 0.280784
v 0.622525 -0.233660 -0.280784
v 0.622525 -0.202916 -0.280784
v 0.622525 -0.202916 0.280784
v 0.680811 -0.233660 0.280784
v 0.680811 -0.233660 -0.280784
v 0.680811 -0.202916 -0.280784
v 0.680811 -0.202916 0.280784
v -0.281260 -0.233770 0.280784
v -0.281260 -0.233770 -0.280784
v -0.281260 -0.202817 -0.280784
v -0.281260 -0.202817 0.280784
v -0.245261 -0.202817 -0.280784
v -0.245261 -0.202817 0.280784
v -0.245261 -0.233770 0.280784
v -0.245261 -0.233770 -0.280784
v -0.281260 -0.791496 0.280784
v -0.281260 -0.791496 -0.280784
v -0.245261 -0.791496 0.280784
v -0.245261 -0.791496 -0.280784
v -0.245261 -0.512633 0.280784
v -0.245261 -0.512633 -0.280784
v -0.281260 -0.512633 0.280784
v -0.281260 -0.512633 -0.280784
v -0.245261 -0.481705 -0.280784
v -0.245261 -0.481705 0.280784
v -0.281260 -0.481705 0.280784
v -0.281260 -0.481705 -0.280784
v -0.642912 -0.481603 0.280784
v -0.642912 -0.512601 0.280784
v -0.642912 -0.481603 -0.280784
v -0.642912 -0.512601 -0.280784
v -0.702835 -0.512601 -0.280784
v -0.702835 -0.512601 0.280784
v -0.281260 -0.760511 -0.280784
v -0.245261 -0.760511 0.280784
v -0.702835 -0.481603 -0.280784
v -0.702835 -0.481603 0.280784
v -0.245261 -0.760511 -0.280784
v -0.281260 -0.760511 0.280784
v 0.622525 -0.791447 -0.280784
v 0.622525 -0.760581 -0.280784
v 0.622525 -0.791447 0.280784
v 0.622525 -0.760581 0.280784
v 0.680811 -0.791447 0.280784
v 0.680811 -0.791447 -0.280784
v -0.108895 -0.760522 -0.280784
v -0.108895 -0.791488 0.280784
v 0.680811 -0.760581 -0.280784
v -0.108895 -0.791488 -0.280784
v 0.680811 -0.760581 0.280784
v -0.108895 -0.760522 0.280784
v -0.142748 -0.791490 -0.280784
v -0.142748 -0.791490 0.280784
v -0.142748 -0.760520 0.280784
v -0.142748 -0.760520 -0.280784
v -0.108961 -1.315786 -0.280784
v -0.108961 -1.315786 0.280784
v -0.142677 -1.315788 -0.280784
v -0.142677 -1.315788 0.280784
v -0.108961 -1.380290 -0.280784
v -0.108961 -1.380290 0.280784
v -0.142677 -1.380290 -0.280784
v -0.142677 -1.380290 0.280784
vt 0.527572 0.013311
vt 0.527572 0.000000
vt 0.634632 0.000000
vt 0.634632 0.013310
vt 0.516460 0.013310
vt 0.516460 0.000000
vt 0.527572 0.000000
vt 0.527572 0.013310
vt 0.741693 0.548131
vt 0.741693 0.561442
vt 0.634633 0.561441
vt 0.634633 0.548131
vt 0.252362 0.013310
vt 0.252362 0.000000
vt 0.263786 0.000000
vt 0.263786 0.013310
vt 0.741693 0.012602
vt 0.634633 0.012602
vt 0.634633 0.000000
vt 0.741693 0.000000
vt 0.107061 0.573141
vt 0.107061 0.561442
vt 0.214121 0.561442
vt 0.214121 0.573141
vt 0.107061 0.831582
vt 0.107061 0.820203
vt 0.214121 0.820203
vt 0.214121 0.831582
vt 0.642363 0.728880
vt 0.642363 0.870078
vt 0.535302 0.870078
vt 0.535302 0.728880
vt 0.000000 0.013311
vt 0.000000 0.000000
vt 0.011112 0.000000
vt 0.011112 0.013311
vt 0.378584 0.013311
vt 0.378584 0.000000
vt 0.107061 0.820203
vt 0.107061 0.831582
vt 0.000000 0.831582
vt 0.000000 0.820203
vt 0.516460 0.548840
vt 0.527572 0.548840
vt 0.527572 0.561441
vt 0.516460 0.561441
vt 0.000000 0.548840
vt 0.011112 0.548840
vt 0.011112 0.561442
vt 0.000000 0.561442
vt 0.321182 0.833229
vt 0.428242 0.833229
vt 0.428242 0.845831
vt 0.321182 0.845831
vt 0.263786 0.013311
vt 0.263786 0.000000
vt 0.275210 0.000000
vt 0.275210 0.013311
vt 0.263786 0.548854
vt 0.275210 0.548854
vt 0.275210 0.561442
vt 0.263786 0.561442
vt 0.107061 0.672786
vt 0.214121 0.672786
vt 0.155061 0.013311
vt 0.155061 0.000000
vt 0.107060 0.561442
vt 0.107060 0.573141
vt 0.000000 0.573141
vt 0.000000 0.561442
vt 0.527572 0.548854
vt 0.634633 0.548854
vt 0.634633 0.561441
vt 0.527572 0.561441
vt 0.377006 0.561442
vt 0.377006 0.548848
vt 0.252362 0.548854
vt 0.263786 0.548854
vt 0.263786 0.561441
vt 0.252362 0.561441
vt 0.252362 0.392035
vt 0.263786 0.392035
vt 0.749423 0.718260
vt 0.642363 0.718260
vt 0.642363 0.561442
vt 0.749423 0.561442
vt 0.527572 0.392035
vt 0.634633 0.392035
vt 0.263786 0.392036
vt 0.275210 0.392036
vt 0.749423 0.861074
vt 0.642363 0.861074
vt 0.642363 0.718260
vt 0.749423 0.718260
vt 0.150567 0.548848
vt 0.150567 0.561442
vt 0.000000 0.677389
vt 0.107060 0.677389
vt 0.321181 0.730867
vt 0.428242 0.730867
vt 0.000000 0.446477
vt 0.011112 0.446477
vt 0.516460 0.446477
vt 0.527572 0.446477
vt 0.741693 0.114965
vt 0.634633 0.114965
vt 0.148988 0.000000
vt 0.148988 0.013311
vt 0.107061 0.679005
vt 0.214121 0.679005
vt 0.372511 0.013311
vt 0.372511 0.000000
vt 0.148988 0.114835
vt 0.155061 0.114835
vt 0.155061 0.121198
vt 0.148988 0.121198
vt 0.849704 0.780721
vt 0.947005 0.780721
vt 0.947005 0.890360
vt 0.849704 0.890360
vt 0.535302 0.629236
vt 0.535302 0.623017
vt 0.642363 0.623017
vt 0.642363 0.629236
vt 0.642363 0.728880
vt 0.535302 0.728880
vt 0.372511 0.114835
vt 0.378584 0.114835
vt 0.378584 0.121198
vt 0.372511 0.121198
vt 0.438710 0.121198
vt 0.438710 0.114835
vt 0.445512 0.114835
vt 0.445512 0.121198
vt 0.848754 0.109640
vt 0.848754 0.000000
vt 0.947890 0.000000
vt 0.947890 0.109640
vt 0.642363 0.970714
vt 0.642363 0.861074
vt 0.741499 0.861074
vt 0.741499 0.970714
vt 0.422029 0.955471
vt 0.422029 0.845831
vt 0.428242 0.845831
vt 0.428242 0.955471
vt 0.946054 0.438558
vt 0.946054 0.548198
vt 0.848754 0.548198
vt 0.848754 0.438558
vt 0.275210 0.121175
vt 0.275210 0.114812
vt 0.252362 0.114812
vt 0.252362 0.121175
vt 0.263786 0.114812
vt 0.263786 0.121175
vt 0.527572 0.114812
vt 0.634632 0.114812
vt 0.634632 0.121175
vt 0.527572 0.121175
vt 0.947005 0.890360
vt 0.947005 0.780721
vt 0.953218 0.780721
vt 0.953218 0.890360
vt 0.263786 0.114812
vt 0.263786 0.121175
vt 0.848754 0.219279
vt 0.848754 0.109640
vt 0.947868 0.109640
vt 0.947868 0.219279
vt 0.968307 0.780721
vt 0.968307 0.671081
vt 0.974658 0.671081
vt 0.974658 0.780721
vt 0.946072 1.000000
vt 0.946072 0.890360
vt 0.952874 0.890360
vt 0.952874 1.000000
vt 0.088862 0.114835
vt 0.088862 0.121198
vt 0.082060 0.121198
vt 0.082060 0.114835
vt 0.885946 1.000000
vt 0.885946 0.890360
vt 0.535302 0.561442
vt 0.642363 0.561442
vt 0.825172 0.890360
vt 0.825172 1.000000
vt 0.818371 1.000000
vt 0.818371 0.890360
vt 0.438710 0.223883
vt 0.445512 0.223883
vt 0.445512 0.230388
vt 0.438710 0.230388
vt 0.371803 0.223879
vt 0.371803 0.230402
vt 0.275210 0.230423
vt 0.275210 0.223872
vt 0.082060 0.223884
vt 0.088862 0.223884
vt 0.088862 0.230388
vt 0.082060 0.230388
vt 0.082060 0.169107
vt 0.088862 0.169107
vt 0.088862 0.175224
vt 0.082060 0.175224
vt 0.046782 0.941222
vt 0.046782 0.831582
vt 0.052756 0.831582
vt 0.052756 0.941222
vt 0.438710 0.169107
vt 0.445512 0.169107
vt 0.445512 0.175224
vt 0.438710 0.175224
vt 0.011112 0.175206
vt 0.011112 0.169128
vt 1.000000 0.780721
vt 1.000000 0.890360
vt 0.000000 0.941222
vt 0.000000 0.831582
vt 0.747434 0.861074
vt 0.747434 0.970714
vt 0.741499 0.970714
vt 0.741499 0.861074
vt 0.849844 0.780721
vt 0.849844 0.671081
vt 0.920792 0.671081
vt 0.920792 0.780721
vt 0.428242 0.981321
vt 0.428242 0.871682
vt 0.499190 0.871682
vt 0.499190 0.981321
vt 0.516460 0.169128
vt 0.516460 0.175206
vt 0.741693 0.392314
vt 0.634633 0.392314
vt 0.634633 0.386236
vt 0.741693 0.386236
vt 0.527572 0.169128
vt 0.527572 0.175206
vt 0.000000 0.169128
vt 0.000000 0.175206
vt 0.741693 0.156367
vt 0.848754 0.156367
vt 0.848754 0.312185
vt 0.741693 0.312185
vt 0.100270 0.831582
vt 0.100270 0.941222
vt 0.920792 0.780721
vt 0.920792 0.671081
vt 0.206653 0.941222
vt 0.206653 0.831582
vt 0.213051 0.831582
vt 0.213051 0.941222
vt 0.155769 0.230402
vt 0.155769 0.223879
vt 0.252362 0.223872
vt 0.252362 0.230423
vt 0.428242 0.629961
vt 0.535302 0.629961
vt 0.535302 0.728880
vt 0.428242 0.728880
vt 0.946471 0.561442
vt 0.946471 0.671081
vt 0.849878 0.671081
vt 0.849878 0.561442
vt 0.263786 0.223872
vt 0.263786 0.230423
vt 0.527572 0.223872
vt 0.634632 0.223872
vt 0.634632 0.230423
vt 0.527572 0.230423
vt 0.371803 0.331554
vt 0.377937 0.331552
vt 0.377937 0.337596
vt 0.371803 0.337597
vt 0.263786 0.223872
vt 0.263786 0.230423
vt 0.749423 0.890360
vt 0.749423 0.780721
vt 0.849704 0.780721
vt 0.849704 0.890360
vt 0.428242 0.623679
vt 0.535302 0.623679
vt 0.149635 0.230401
vt 0.149635 0.223879
vt 0.377937 0.223879
vt 0.377937 0.230401
vt 0.428242 0.561442
vt 0.535302 0.561442
vt 0.885946 0.890360
vt 0.885946 1.000000
vt 0.321181 0.589006
vt 0.214121 0.589006
vt 0.214121 0.582725
vt 0.321181 0.582725
vt 0.149635 0.331552
vt 0.149635 0.337596
vt 0.011112 0.337576
vt 0.011112 0.331573
vt 0.506053 0.871682
vt 0.506053 0.981321
vt 0.499190 0.981321
vt 0.499190 0.871682
vt 0.155769 0.331554
vt 0.155769 0.337597
vt 0.848754 0.438558
vt 0.848754 0.328919
vt 0.947525 0.328919
vt 0.947525 0.438558
vt 0.848754 0.328919
vt 0.848754 0.219279
vt 0.947525 0.219279
vt 0.947525 0.328919
vt 0.953729 0.109640
vt 0.953729 0.219279
vt 0.947868 0.219279
vt 0.947868 0.109640
vt 0.516460 0.331573
vt 0.516460 0.337576
vt 0.321181 0.730867
vt 0.214121 0.730867
vt 0.214121 0.730867
vt 0.321181 0.730867
vt 0.321181 0.872727
vt 0.214121 0.872727
vt 0.741693 0.229868
vt 0.634633 0.229868
vt 0.634633 0.223866
vt 0.741693 0.223866
vt 0.527572 0.331573
vt 0.527572 0.337576
vt 0.000000 0.331573
vt 0.000000 0.337576
vt 0.741693 0.000000
vt 0.848754 0.000000
vt 0.848754 0.156367
vt 0.741693 0.156367
vt 0.946054 0.548198
vt 0.946054 0.438558
vt 0.951955 0.438558
vt 0.951955 0.548198
vt 0.377018 0.446485
vt 0.377018 0.440439
vt 0.516460 0.440451
vt 0.176552 0.337597
vt 0.176552 0.331554
vt 0.183415 0.331554
vt 0.183415 0.337597
vt 0.351021 0.331554
vt 0.351021 0.337597
vt 0.344158 0.337597
vt 0.344158 0.331554
vt 0.214121 0.561442
vt 0.321181 0.561442
vt 0.526835 0.871682
vt 0.526835 0.981321
vt 0.289931 0.872727
vt 0.289931 0.982367
vt 0.283068 0.982367
vt 0.283068 0.872727
vt 0.176552 0.440437
vt 0.183415 0.440437
vt 0.183415 0.446487
vt 0.176552 0.446487
vt 0.993728 0.671081
vt 0.993728 0.561442
vt 0.999635 0.561442
vt 0.999635 0.671081
vt 0.344158 0.440437
vt 0.351021 0.440437
vt 0.351021 0.446487
vt 0.344158 0.446487
vt 0.344158 0.386003
vt 0.351021 0.386003
vt 0.351021 0.392042
vt 0.344158 0.392042
vt 0.283068 0.872727
vt 0.283068 0.982367
vt 0.214121 0.982367
vt 0.214121 0.872727
vt 0.176552 0.386003
vt 0.183415 0.386003
vt 0.183415 0.392042
vt 0.176552 0.392042
vt 0.802576 0.671081
vt 0.802576 0.780721
vt 0.796680 0.780721
vt 0.796680 0.671081
vt 0.849844 0.671081
vt 0.849844 0.780721
vt 0.999223 0.438558
vt 0.999223 0.548198
vt 0.947525 0.328919
vt 0.947525 0.219279
vt 0.953435 0.219279
vt 0.953435 0.328919
vt 0.275210 0.385984
vt 0.818371 0.890360
vt 0.818371 1.000000
vt 0.749423 1.000000
vt 0.749423 0.890360
vt 0.252362 0.385983
vt 0.263786 0.385984
vt 0.527572 0.385983
vt 0.634633 0.385983
vt 0.263786 0.385983
vt 0.848754 0.467745
vt 0.741693 0.467745
vt 0.741693 0.312185
vt 0.848754 0.312185
vt 0.946471 0.671081
vt 0.946471 0.561442
vt 0.749423 0.780721
vt 0.749423 0.671081
vt 0.947525 0.438558
vt 0.947525 0.328919
vt 0.953410 0.328919
vt 0.953410 0.438558
vt 0.428242 0.728880
vt 0.535302 0.728880
vt 0.535302 0.871682
vt 0.428242 0.871682
vt 0.428242 0.704243
vt 0.321181 0.704243
vt 0.321181 0.561442
vt 0.428242 0.561442
vt 0.150554 0.440439
vt 0.150554 0.446485
vt 0.011112 0.440451
vt 0.741693 0.120991
vt 0.634633 0.120991
vt 0.527572 0.440451
vt 0.000000 0.440451
vt 0.157008 0.440439
vt 0.157008 0.446485
vt 0.749423 0.671081
vt 0.749423 0.561442
vt 0.849878 0.561442
vt 0.849878 0.671081
vt 0.428242 0.710852
vt 0.321181 0.710852
vt 0.370564 0.446485
vt 0.370578 0.548848
vt 0.370564 0.440439
vt 0.309475 0.872727
vt 0.309475 0.982367
vt 0.428242 0.730867
vt 0.321181 0.730867
vt 0.200225 0.941222
vt 0.200225 0.831582
vt 0.206653 0.831582
vt 0.206653 0.941222
vt 0.100270 0.941222
vt 0.100270 0.831582
vt 0.321181 0.955471
vt 0.321181 0.845831
vt 0.421136 0.845831
vt 0.421136 0.955471
vt 0.156994 0.548848
vt 0.000000 0.670806
vt 0.107060 0.670806
vt 0.156994 0.561442
vt 0.370578 0.561442
vt 0.535302 0.979718
vt 0.535302 0.870078
vt 0.630670 0.870078
vt 0.630670 0.979718
vn -1.0000 0.0000 0.0000
vn 0.0000 0.0000 -1.0000
vn 1.0000 0.0000 0.0000
vn 0.0000 0.0000 1.0000
vn 0.0000 1.0000 0.0000
vn 0.0000 -1.0000 -0.0000
vn -0.0001 1.0000 0.0000
vn -0.0002 -1.0000 0.0000
vn 0.0002 1.0000 0.0000
vn 0.0003 -1.0000 0.0000
vn 0.0003 1.0000 0.0000
vn 0.0001 1.0000 0.0000
vn 0.0002 -1.0000 0.0000
vn 0.0001 -1.0000 -0.0000
vn -0.0001 -1.0000 0.0000
vn -1.0000 -0.0001 0.0000
vn 1.0000 -0.0001 0.0000
usemtl Material
s off
f 1/1/1 2/2/1 4/3/1 3/4/1
f 9/5/2 10/6/2 8/7/2 7/8/2
f 7/9/3 8/10/3 6/11/3 5/12/3
f 20/13/4 18/14/4 2/15/4 1/16/4
f 32/17/3 31/18/3 13/19/3 14/20/3
f 19/21/5 4/22/5 2/23/5 18/24/5
f 8/25/5 10/26/5 12/27/5 6/28/5
f 35/29/6 9/30/6 11/31/6 34/32/6
f 5/33/4 6/34/4 12/35/4 11/36/4
f 35/37/2 33/38/2 10/6/2 9/5/2
f 16/39/6 14/40/6 13/41/6 15/42/6
f 29/43/2 32/44/2 14/45/2 16/46/2
f 31/47/4 30/48/4 15/49/4 13/50/4
f 30/51/1 29/52/1 16/53/1 15/54/1
f 3/55/2 4/56/2 19/57/2 17/58/2
f 26/59/2 25/60/2 23/61/2 21/62/2
f 39/63/5 19/21/5 18/24/5 38/64/5
f 40/65/4 38/66/4 18/14/4 20/13/4
f 21/67/6 23/68/6 24/69/6 22/70/6
f 27/71/1 26/72/1 21/73/1 22/74/1
f 173/75/2 169/76/2 29/43/2 16/46/2
f 28/77/4 27/78/4 22/79/4 24/80/4
f 142/81/4 146/82/4 27/78/4 28/77/4
f 144/83/3 142/84/3 28/85/3 25/86/3
f 146/87/1 145/88/1 26/72/1 27/71/1
f 145/89/2 144/90/2 25/60/2 26/59/2
f 169/91/7 170/92/7 30/93/7 29/94/7
f 170/95/4 174/96/4 15/49/4 30/48/4
f 174/97/6 173/98/6 16/39/6 15/42/6
f 155/99/1 153/100/1 29/52/1 30/51/1
f 157/101/4 155/102/4 30/48/4 31/47/4
f 153/103/2 158/104/2 32/44/2 29/43/2
f 158/105/3 157/106/3 31/18/3 32/17/3
f 11/36/4 12/35/4 36/107/4 34/108/4
f 10/26/5 33/109/5 36/110/5 12/27/5
f 37/111/2 39/112/2 33/38/2 35/37/2
f 46/113/4 45/114/4 41/115/4 42/116/4
f 17/117/6 37/118/6 40/119/6 20/120/6
f 17/58/2 19/57/2 39/112/2 37/111/2
f 34/108/4 36/107/4 38/66/4 40/65/4
f 33/109/5 39/63/5 38/64/5 36/110/5
f 44/121/6 43/122/6 42/123/6 41/124/6
f 44/121/8 41/124/8 50/125/8 49/126/8
f 47/127/2 48/128/2 43/129/2 44/130/2
f 62/131/2 64/132/2 56/133/2 55/134/2
f 35/135/3 34/136/3 46/137/3 48/138/3
f 37/111/2 35/37/2 48/128/2 47/127/2
f 40/139/1 37/140/1 47/141/1 45/142/1
f 34/108/4 40/65/4 45/114/4 46/113/4
f 51/143/1 52/144/1 49/145/1 50/146/1
f 45/147/9 47/148/9 52/149/9 51/150/9
f 47/127/2 44/130/2 49/151/2 52/152/2
f 41/115/4 45/114/4 51/153/4 50/154/4
f 57/155/2 52/152/2 49/151/2 53/156/2
f 58/157/1 57/158/1 53/159/1 54/160/1
f 56/161/3 60/162/3 59/163/3 55/164/3
f 51/153/4 58/165/4 54/166/4 50/154/4
f 20/13/4 1/16/4 58/165/4 51/153/4
f 17/167/3 20/168/3 51/169/3 52/170/3
f 1/1/1 3/4/1 57/158/1 58/157/1
f 3/55/2 17/58/2 52/152/2 57/155/2
f 86/171/3 84/172/3 66/173/3 65/174/3
f 64/175/5 63/176/5 60/177/5 56/178/5
f 63/179/4 61/180/4 59/181/4 60/182/4
f 46/113/4 42/116/4 61/180/4 63/179/4
f 48/183/5 46/184/5 63/176/5 64/175/5
f 42/123/6 43/122/6 62/185/6 61/186/6
f 43/129/2 48/128/2 64/132/2 62/131/2
f 67/187/6 68/188/6 65/189/6 66/190/6
f 82/191/2 86/192/2 65/193/2 68/194/2
f 99/195/2 95/196/2 91/197/2 89/198/2
f 84/199/4 87/200/4 67/201/4 66/202/4
f 76/203/4 75/204/4 72/205/4 69/206/4
f 75/207/1 74/208/1 71/209/1 72/210/1
f 74/211/2 73/212/2 70/213/2 71/214/2
f 76/203/4 69/206/4 78/215/4 77/216/4
f 55/164/3 59/163/3 76/217/3 73/218/3
f 62/131/2 55/134/2 73/212/2 74/211/2
f 61/219/1 62/220/1 74/208/1 75/207/1
f 59/181/4 61/180/4 75/204/4 76/203/4
f 80/221/3 77/222/3 78/223/3 79/224/3
f 69/225/10 70/226/10 79/227/10 78/228/10
f 73/229/11 76/230/11 77/231/11 80/232/11
f 70/213/2 73/212/2 80/233/2 79/234/2
f 85/235/3 88/236/3 83/237/3 81/238/3
f 80/233/2 85/239/2 81/240/2 79/234/2
f 88/241/4 77/216/4 78/215/4 83/242/4
f 69/206/4 72/205/4 87/200/4 84/199/4
f 11/243/1 9/244/1 80/245/1 77/246/1
f 5/33/4 11/36/4 77/216/4 88/241/4
f 9/5/2 7/8/2 85/239/2 80/233/2
f 7/9/3 5/12/3 88/236/3 85/235/3
f 72/210/1 71/209/1 82/247/1 87/248/1
f 71/214/2 70/213/2 86/192/2 82/191/2
f 70/249/3 69/250/3 84/172/3 86/171/3
f 90/251/1 89/252/1 91/253/1 92/254/1
f 100/255/4 96/256/4 90/257/4 92/258/4
f 96/259/12 99/260/12 89/261/12 90/262/12
f 95/263/13 100/264/13 92/265/13 91/266/13
f 97/267/2 89/198/2 91/197/2 93/268/2
f 98/269/1 97/270/1 93/271/1 94/272/1
f 110/273/2 109/274/2 107/275/2 106/276/2
f 90/257/4 98/277/4 94/278/4 92/258/4
f 50/154/4 54/166/4 98/277/4 90/257/4
f 49/279/3 50/280/3 90/281/3 89/282/3
f 54/160/1 53/159/1 97/270/1 98/269/1
f 53/156/2 49/151/2 89/198/2 97/267/2
f 103/283/12 101/284/12 99/260/12 96/259/12
f 102/285/4 103/286/4 96/256/4 100/255/4
f 101/287/2 104/288/2 95/196/2 99/195/2
f 82/191/2 68/194/2 104/288/2 101/287/2
f 67/201/4 87/200/4 103/286/4 102/285/4
f 87/289/12 82/290/12 101/284/12 103/283/12
f 68/188/13 67/187/13 102/291/13 104/292/13
f 107/293/13 108/294/13 105/295/13 106/296/13
f 111/297/4 108/298/4 113/299/4 116/300/4
f 126/301/5 125/302/5 123/303/5 124/304/5
f 111/297/4 112/305/4 105/306/4 108/298/4
f 102/285/4 100/255/4 112/305/4 111/297/4
f 100/307/1 95/308/1 110/309/1 112/310/1
f 104/311/3 102/312/3 111/313/3 109/314/3
f 95/196/2 104/288/2 109/274/2 110/273/2
f 115/315/3 116/316/3 113/317/3 114/318/3
f 107/275/2 109/274/2 115/319/2 114/320/2
f 108/294/14 107/293/14 114/321/14 113/322/14
f 109/323/12 111/324/12 116/325/12 115/326/12
f 119/327/3 120/328/3 117/329/3 118/330/3
f 115/319/2 119/331/2 118/332/2 114/320/2
f 120/333/4 116/300/4 113/299/4 117/334/4
f 78/335/1 79/336/1 115/337/1 116/338/1
f 83/242/4 78/215/4 116/300/4 120/333/4
f 79/234/2 81/240/2 119/331/2 115/319/2
f 81/238/3 83/237/3 120/328/3 119/327/3
f 124/339/1 123/340/1 122/341/1 121/342/1
f 162/343/2 159/344/2 154/345/2 153/103/2
f 127/346/4 126/347/4 124/348/4 121/349/4
f 125/350/2 128/351/2 122/352/2 123/353/2
f 110/273/2 106/276/2 128/351/2 125/350/2
f 105/306/4 112/305/4 126/347/4 127/346/4
f 106/296/6 105/295/6 127/354/6 128/355/6
f 112/356/5 110/357/5 125/302/5 126/301/5
f 132/358/6 131/359/6 129/360/6 130/361/6
f 148/362/4 152/363/4 129/364/4 131/365/4
f 152/366/1 147/367/1 130/368/1 129/369/1
f 147/370/2 151/371/2 132/372/2 130/373/2
f 140/374/2 137/375/2 134/376/2 136/377/2
f 136/378/15 135/379/15 142/380/15 144/381/15
f 138/382/4 139/383/4 135/384/4 133/385/4
f 137/386/3 138/387/3 133/388/3 134/389/3
f 128/390/3 127/391/3 138/387/3 137/386/3
f 127/346/4 121/349/4 139/383/4 138/382/4
f 121/342/1 122/341/1 140/392/1 139/393/1
f 122/352/2 128/351/2 137/375/2 140/374/2
f 141/394/1 143/395/1 144/396/1 142/397/1
f 140/374/2 136/377/2 144/90/2 143/398/2
f 139/399/11 140/400/11 143/401/11 141/402/11
f 135/384/4 139/383/4 141/403/4 142/81/4
f 149/404/2 143/398/2 144/90/2 145/89/2
f 150/405/1 149/406/1 145/88/1 146/87/1
f 136/377/2 134/376/2 151/371/2 147/370/2
f 141/403/4 150/407/4 146/82/4 142/81/4
f 92/258/4 94/278/4 150/407/4 141/403/4
f 91/408/3 92/409/3 141/410/3 143/411/3
f 94/272/1 93/271/1 149/406/1 150/405/1
f 93/268/2 91/197/2 143/398/2 149/404/2
f 135/412/1 136/413/1 147/367/1 152/366/1
f 133/385/4 135/384/4 152/363/4 148/362/4
f 134/389/3 133/388/3 148/414/3 151/415/3
f 154/416/3 156/417/3 155/418/3 153/419/3
f 160/420/14 162/421/14 153/422/14 155/423/14
f 159/424/12 164/425/12 156/426/12 154/427/12
f 164/428/4 160/429/4 155/102/4 156/430/4
f 161/431/3 163/432/3 157/106/3 158/105/3
f 154/345/2 161/433/2 158/104/2 153/103/2
f 163/434/4 156/430/4 155/102/4 157/101/4
f 167/435/4 166/436/4 160/429/4 164/428/4
f 113/437/1 114/438/1 154/439/1 156/440/1
f 117/334/4 113/299/4 156/430/4 163/434/4
f 114/320/2 118/332/2 161/433/2 154/345/2
f 118/330/3 117/329/3 163/432/3 161/431/3
f 168/441/12 167/442/12 164/425/12 159/424/12
f 165/443/2 162/343/2 169/76/2 171/444/2
f 165/443/2 168/445/2 159/344/2 162/343/2
f 132/372/2 151/371/2 168/445/2 165/443/2
f 131/359/14 132/358/14 165/446/14 166/447/14
f 151/448/12 148/449/12 167/442/12 168/441/12
f 148/362/4 131/365/4 166/436/4 167/435/4
f 172/450/14 171/451/14 169/452/14 170/453/14
f 166/454/16 165/455/16 171/451/16 172/450/16
f 162/456/17 160/457/17 170/458/17 169/459/17
f 160/429/4 166/436/4 172/460/4 170/95/4
f 176/461/6 175/462/6 173/98/6 174/97/6
f 172/460/4 176/463/4 174/96/4 170/95/4
f 175/464/2 171/444/2 169/76/2 173/75/2
f 23/61/2 25/60/2 171/444/2 175/464/2
f 25/465/7 28/466/7 172/467/7 171/468/7
f 28/77/4 24/80/4 176/463/4 172/460/4
f 24/69/6 23/68/6 175/462/6 176/461/6
