{
    "asset": {
        "generator": "COLLADA2GLTF",
        "version": "2.0"
    },
    "scenes": [
        {
            "nodes": [
                0
            ]
        }
    ],
    "scene": 0,
    "nodes": [
        {
            "children": [
                1
            ],
            "matrix": [
                1.0,
                0.0,
                0.0,
                0.0,
                0.0,
                0.0,
                -1.0,
                0.0,
                0.0,
                1.0,
                0.0,
                0.0,
                0.0,
                0.0,
                0.0,
                1.0
            ],
            "name": "Z_UP"
        },
        {
            "children": [
                2
            ],
            "name": "Model"
        },
        {
            "children": [
                3
            ],
            "name": "Part_0"
        },
        {
            "children": [
                5,
                4
            ],
            "name": "Part_0_Model"
        },
        {
            "mesh": 0,
            "matrix": [
                420.0,
                0.0,
                0.0,
                0.0,
                0.0,
                510.0,
                0.0,
                0.0,
                0.0,
                0.0,
                855.0,
                0.0,
                0.0,
                0.0,
                0.0,
                1.0
            ],
            "name": "2_primitive"
        },
        {
            "mesh": 1,
            "matrix": [
                370.0,
                0.0,
                0.0,
                0.0,
                0.0,
                489.7999877929688,
                0.0,
                0.0,
                0.0,
                0.0,
                510.0,
                0.0,
                0.0,
                0.0,
                0.0,
                1.0
            ],
            "name": "1_primitive"
        }
    ],
    "meshes": [
        {
            "primitives": [
                {
                    "attributes": {
                        "NORMAL": 1,
                        "POSITION": 2
                    },
                    "indices": 0,
                    "mode": 4,
                    "material": 0
                }
            ],
            "name": "geometry-2"
        },
        {
            "primitives": [
                {
                    "attributes": {
                        "NORMAL": 4,
                        "POSITION": 5
                    },
                    "indices": 3,
                    "mode": 4,
                    "material": 1
                }
            ],
            "name": "geometry-1"
        }
    ],
    "accessors": [
        {
            "bufferView": 0,
            "byteOffset": 0,
            "componentType": 5123,
            "count": 336,
            "max": [
                179
            ],
            "min": [
                0
            ],
            "type": "SCALAR"
        },
        {
            "bufferView": 1,
            "byteOffset": 0,
            "componentType": 5126,
            "count": 180,
            "max": [
                1.0,
                0.9992409944534302,
                1.0
            ],
            "min": [
                -1.0,
                -0.9992039799690248,
                -1.0
            ],
            "type": "VEC3"
        },
        {
            "bufferView": 1,
            "byteOffset": 2160,
            "componentType": 5126,
            "count": 180,
            "max": [
                0.0005000000237487257,
                0.0005000000237487257,
                0.0010000000474974514
            ],
            "min": [
                -0.0005000000237487257,
                -0.0005000000237487257,
                0.0
            ],
            "type": "VEC3"
        },
        {
            "bufferView": 0,
            "byteOffset": 672,
            "componentType": 5123,
            "count": 396,
            "max": [
                67
            ],
            "min": [
                0
            ],
            "type": "SCALAR"
        },
        {
            "bufferView": 1,
            "byteOffset": 4320,
            "componentType": 5126,
            "count": 68,
            "max": [
                0.9451190233230592,
                0.9542269706726074,
                0.9644820094108582
            ],
            "min": [
                -0.9451159834861757,
                -0.9518119692802428,
                -0.9047380089759828
            ],
            "type": "VEC3"
        },
        {
            "bufferView": 1,
            "byteOffset": 5136,
            "componentType": 5126,
            "count": 68,
            "max": [
                0.0005000000237487257,
                0.0005201700259931386,
                0.001686275121755898
            ],
            "min": [
                -0.0005000000237487257,
                -0.0004798300215043128,
                0.0006862750160507858
            ],
            "type": "VEC3"
        }
    ],
    "materials": [
        {
            "pbrMetallicRoughness": {
                "baseColorFactor": [
                    0.9607840180397034,
                    0.7294120192527771,
                    0.4078429937362671,
                    1.0
                ],
                "metallicFactor": 0.0
            },
            "emissiveFactor": [
                0.0,
                0.0,
                0.0
            ],
            "doubleSided": true,
            "name": "color12material-effect"
        },
        {
            "pbrMetallicRoughness": {
                "baseColorFactor": [
                    0.9215689897537231,
                    0.9215689897537231,
                    0.9215689897537231,
                    1.0
                ],
                "metallicFactor": 0.0
            },
            "emissiveFactor": [
                0.0,
                0.0,
                0.0
            ],
            "doubleSided": true,
            "name": "color11material-effect"
        }
    ],
    "bufferViews": [
        {
            "buffer": 0,
            "byteOffset": 5952,
            "byteLength": 1464,
            "target": 34963
        },
        {
            "buffer": 0,
            "byteOffset": 0,
            "byteLength": 5952,
            "byteStride": 12,
            "target": 34962
        }
    ],
    "buffers": [
        {
            "byteLength": 7416,
            "uri": "data:application/octet-stream;base64,"
        }
    ]
}
