{
    "asset": {
        "generator": "COLLADA2GLTF",
        "version": "2.0"
    },
    "scenes": [
        {
            "nodes": [
                0
            ]
        }
    ],
    "scene": 0,
    "nodes": [
        {
            "children": [
                1
            ],
            "matrix": [
                1.0,
                0.0,
                0.0,
                0.0,
                0.0,
                0.0,
                -1.0,
                0.0,
                0.0,
                1.0,
                0.0,
                0.0,
                0.0,
                0.0,
                0.0,
                1.0
            ],
            "name": "Z_UP"
        },
        {
            "children": [
                2
            ],
            "name": "Model"
        },
        {
            "children": [
                3
            ],
            "name": "Part_0"
        },
        {
            "children": [
                6,
                5,
                4
            ],
            "name": "Part_0_Model"
        },
        {
            "mesh": 0,
            "matrix": [
                1300.0,
                0.0,
                0.0,
                0.0,
                0.0,
                800.0001220703125,
                0.0,
                0.0,
                0.0,
                0.0,
                20.0001220703125,
                0.0,
                0.0,
                0.0,
                0.0,
                1.0
            ],
            "name": "3_primitive"
        },
        {
            "mesh": 1,
            "matrix": [
                1280.77197265625,
                0.0,
                0.0,
                0.0,
                0.0,
                777.7166748046875,
                0.0,
                0.0,
                0.0,
                0.0,
                710.0,
                0.0,
                0.0,
                0.0,
                0.0,
                1.0
            ],
            "name": "2_primitive"
        },
        {
            "mesh": 2,
            "matrix": [
                1280.77197265625,
                0.0,
                0.0,
                0.0,
                0.0,
                777.7166748046875,
                0.0,
                0.0,
                0.0,
                0.0,
                710.0,
                0.0,
                0.0,
                0.0,
                0.0,
                1.0
            ],
            "name": "1_primitive"
        }
    ],
    "meshes": [
        {
            "primitives": [
                {
                    "attributes": {
                        "NORMAL": 1,
                        "POSITION": 2,
                        "TEXCOORD_0": 3
                    },
                    "indices": 0,
                    "mode": 4,
                    "material": 0
                }
            ],
            "name": "geometry-3"
        },
        {
            "primitives": [
                {
                    "attributes": {
                        "NORMAL": 5,
                        "POSITION": 6,
                        "TEXCOORD_0": 7
                    },
                    "indices": 4,
                    "mode": 4,
                    "material": 1
                }
            ],
            "name": "geometry-2"
        },
        {
            "primitives": [
                {
                    "attributes": {
                        "NORMAL": 9,
                        "POSITION": 10,
                        "TEXCOORD_0": 11
                    },
                    "indices": 8,
                    "mode": 4,
                    "material": 2
                }
            ],
            "name": "geometry-1"
        }
    ],
    "accessors": [
        {
            "bufferView": 0,
            "byteOffset": 0,
            "componentType": 5123,
            "count": 36,
            "max": [
                25
            ],
            "min": [
                0
            ],
            "type": "SCALAR"
        },
        {
            "bufferView": 1,
            "byteOffset": 0,
            "componentType": 5126,
            "count": 26,
            "max": [
                1.0,
                1.0,
                1.0
            ],
            "min": [
                -1.0,
                -1.0,
                -1.0
            ],
            "type": "VEC3"
        },
        {
            "bufferView": 1,
            "byteOffset": 312,
            "componentType": 5126,
            "count": 26,
            "max": [
                0.0005000000237487257,
                0.0005000000237487257,
                0.03649977967143059
            ],
            "min": [
                -0.0005000000237487257,
                -0.0005000000237487257,
                0.03549978137016297
            ],
            "type": "VEC3"
        },
        {
            "bufferView": 2,
            "byteOffset": 0,
            "componentType": 5126,
            "count": 26,
            "max": [
                1.0,
                2.0
            ],
            "min": [
                0.0,
                1.0
            ],
            "type": "VEC2"
        },
        {
            "bufferView": 0,
            "byteOffset": 72,
            "componentType": 5123,
            "count": 768,
            "max": [
                647
            ],
            "min": [
                0
            ],
            "type": "SCALAR"
        },
        {
            "bufferView": 1,
            "byteOffset": 624,
            "componentType": 5126,
            "count": 648,
            "max": [
                0.8547599911689758,
                0.5190359950065613,
                0.000007000000096013537
            ],
            "min": [
                -0.8547589778900147,
                -0.5190349817276001,
                -1.0
            ],
            "type": "VEC3"
        },
        {
            "bufferView": 1,
            "byteOffset": 8400,
            "componentType": 5126,
            "count": 648,
            "max": [
                0.0005000000237487257,
                0.0005000000237487257,
                0.0010000000474974514
            ],
            "min": [
                -0.0005000000237487257,
                -0.0005000000237487257,
                0.0
            ],
            "type": "VEC3"
        },
        {
            "bufferView": 2,
            "byteOffset": 208,
            "componentType": 5126,
            "count": 648,
            "max": [
                1.0,
                2.0
            ],
            "min": [
                0.0,
                1.0
            ],
            "type": "VEC2"
        },
        {
            "bufferView": 0,
            "byteOffset": 1608,
            "componentType": 5123,
            "count": 720,
            "max": [
                255
            ],
            "min": [
                0
            ],
            "type": "SCALAR"
        },
        {
            "bufferView": 1,
            "byteOffset": 16176,
            "componentType": 5126,
            "count": 256,
            "max": [
                0.8533719778060913,
                0.518189013004303,
                1.0
            ],
            "min": [
                -0.8533719778060913,
                -0.518189013004303,
                -1.0
            ],
            "type": "VEC3"
        },
        {
            "bufferView": 1,
            "byteOffset": 19248,
            "componentType": 5126,
            "count": 256,
            "max": [
                0.0005000000237487257,
                0.0005000000237487257,
                0.0010000000474974514
            ],
            "min": [
                -0.0005000000237487257,
                -0.0005000000237487257,
                0.0
            ],
            "type": "VEC3"
        },
        {
            "bufferView": 2,
            "byteOffset": 5392,
            "componentType": 5126,
            "count": 256,
            "max": [
                1.0,
                2.0
            ],
            "min": [
                0.0,
                1.0
            ],
            "type": "VEC2"
        }
    ],
    "materials": [
        {
            "pbrMetallicRoughness": {
                "baseColorTexture": {
                    "index": 0
                },
                "metallicFactor": 0.0
            },
            "emissiveFactor": [
                0.0,
                0.0,
                0.0
            ],
            "doubleSided": true,
            "name": "texture0material-effect"
        },
        {
            "pbrMetallicRoughness": {
                "baseColorTexture": {
                    "index": 0
                },
                "metallicFactor": 0.0
            },
            "emissiveFactor": [
                0.0,
                0.0,
                0.0
            ],
            "doubleSided": true,
            "name": "texture0material-effect"
        },
        {
            "pbrMetallicRoughness": {
                "baseColorTexture": {
                    "index": 0
                },
                "metallicFactor": 0.0
            },
            "emissiveFactor": [
                0.0,
                0.0,
                0.0
            ],
            "doubleSided": true,
            "name": "texture0material-effect"
        }
    ],
    "textures": [
        {
            "sampler": 0,
            "source": 0
        }
    ],
    "images": [
        {
            "uri": "data:image/png;base64,"
        }
    ],
    "samplers": [
        {
            "magFilter": 9729,
            "minFilter": 9986,
            "wrapS": 10497,
            "wrapT": 10497
        }
    ],
    "bufferViews": [
        {
            "buffer": 0,
            "byteOffset": 29760,
            "byteLength": 3048,
            "target": 34963
        },
        {
            "buffer": 0,
            "byteOffset": 0,
            "byteLength": 22320,
            "byteStride": 12,
            "target": 34962
        },
        {
            "buffer": 0,
            "byteOffset": 22320,
            "byteLength": 7440,
            "byteStride": 8,
            "target": 34962
        }
    ],
    "buffers": [
        {
            "byteLength": 32808,
            "uri": "data:application/octet-stream;base64,"
        }
    ]
}
