{
    "asset": {
        "generator": "COLLADA2GLTF",
        "version": "2.0"
    },
    "scenes": [
        {
            "nodes": [
                0
            ]
        }
    ],
    "scene": 0,
    "nodes": [
        {
            "children": [
                1
            ],
            "matrix": [
                1.0,
                0.0,
                0.0,
                0.0,
                0.0,
                0.0,
                -1.0,
                0.0,
                0.0,
                1.0,
                0.0,
                0.0,
                0.0,
                0.0,
                0.0,
                1.0
            ],
            "name": "Z_UP"
        },
        {
            "children": [
                2
            ],
            "name": "Model"
        },
        {
            "children": [
                3
            ],
            "name": "Part_0"
        },
        {
            "children": [
                11,
                10,
                9,
                8,
                7,
                6,
                5,
                4
            ],
            "name": "Part_0_Model"
        },
        {
            "mesh": 0,
            "matrix": [
                800.0,
                0.0,
                0.0,
                0.0,
                0.0,
                800.0,
                0.0,
                0.0,
                0.0,
                0.0,
                12.0,
                0.0,
                0.0,
                0.0,
                0.4900000095367432,
                1.0
            ],
            "name": "8_primitive"
        },
        {
            "mesh": 1,
            "matrix": [
                799.5,
                0.0,
                0.0,
                0.0,
                0.0,
                799.5,
                0.0,
                0.0,
                0.0,
                0.0,
                20.0,
                0.0,
                0.0,
                0.0,
                0.4900000095367432,
                1.0
            ],
            "name": "7_primitive"
        },
        {
            "mesh": 2,
            "matrix": [
                799.5,
                0.0,
                0.0,
                0.0,
                0.0,
                799.5,
                0.0,
                0.0,
                0.0,
                0.0,
                20.0,
                0.0,
                0.0,
                0.0,
                0.4900000095367432,
                1.0
            ],
            "name": "6_primitive"
        },
        {
            "mesh": 3,
            "matrix": [
                799.5,
                0.0,
                0.0,
                0.0,
                0.0,
                799.5,
                0.0,
                0.0,
                0.0,
                0.0,
                20.0,
                0.0,
                0.0,
                0.0,
                0.4900000095367432,
                1.0
            ],
            "name": "5_primitive"
        },
        {
            "mesh": 4,
            "matrix": [
                619.9999389648438,
                0.0,
                0.0,
                0.0,
                0.0,
                620.0,
                0.0,
                0.0,
                0.0,
                0.0,
                0.000060999998822808269,
                0.0,
                0.0,
                0.0,
                0.0,
                1.0
            ],
            "name": "4_primitive"
        },
        {
            "mesh": 5,
            "matrix": [
                619.9999389648438,
                0.0,
                0.0,
                0.0,
                0.0,
                620.0,
                0.0,
                0.0,
                0.0,
                0.0,
                57.409759521484378,
                0.0,
                0.0,
                0.0,
                0.0,
                1.0
            ],
            "name": "3_primitive"
        },
        {
            "mesh": 6,
            "matrix": [
                619.9999389648438,
                0.0,
                0.0,
                0.0,
                0.0,
                620.0,
                0.0,
                0.0,
                0.0,
                0.0,
                457.30999755859377,
                0.0,
                0.0,
                0.0,
                0.0,
                1.0
            ],
            "name": "2_primitive"
        },
        {
            "mesh": 7,
            "matrix": [
                619.019287109375,
                0.0,
                0.0,
                0.0,
                0.0,
                619.019287109375,
                0.0,
                0.0,
                0.0,
                0.0,
                10.000030517578124,
                0.0,
                0.0,
                0.0,
                0.0,
                1.0
            ],
            "name": "1_primitive"
        }
    ],
    "meshes": [
        {
            "primitives": [
                {
                    "attributes": {
                        "NORMAL": 1,
                        "POSITION": 2,
                        "TEXCOORD_0": 3
                    },
                    "indices": 0,
                    "mode": 4,
                    "material": 0
                }
            ],
            "name": "geometry-8"
        },
        {
            "primitives": [
                {
                    "attributes": {
                        "NORMAL": 5,
                        "POSITION": 6,
                        "TEXCOORD_0": 7
                    },
                    "indices": 4,
                    "mode": 4,
                    "material": 1
                }
            ],
            "name": "geometry-7"
        },
        {
            "primitives": [
                {
                    "attributes": {
                        "NORMAL": 9,
                        "POSITION": 10,
                        "TEXCOORD_0": 11
                    },
                    "indices": 8,
                    "mode": 4,
                    "material": 2
                }
            ],
            "name": "geometry-6"
        },
        {
            "primitives": [
                {
                    "attributes": {
                        "NORMAL": 13,
                        "POSITION": 14,
                        "TEXCOORD_0": 15
                    },
                    "indices": 12,
                    "mode": 4,
                    "material": 3
                }
            ],
            "name": "geometry-5"
        },
        {
            "primitives": [
                {
                    "attributes": {
                        "NORMAL": 17,
                        "POSITION": 18
                    },
                    "indices": 16,
                    "mode": 4,
                    "material": 4
                }
            ],
            "name": "geometry-4"
        },
        {
            "primitives": [
                {
                    "attributes": {
                        "NORMAL": 20,
                        "POSITION": 21
                    },
                    "indices": 19,
                    "mode": 4,
                    "material": 5
                }
            ],
            "name": "geometry-3"
        },
        {
            "primitives": [
                {
                    "attributes": {
                        "NORMAL": 23,
                        "POSITION": 24
                    },
                    "indices": 22,
                    "mode": 4,
                    "material": 6
                }
            ],
            "name": "geometry-2"
        },
        {
            "primitives": [
                {
                    "attributes": {
                        "NORMAL": 26,
                        "POSITION": 27
                    },
                    "indices": 25,
                    "mode": 4,
                    "material": 7
                }
            ],
            "name": "geometry-1"
        }
    ],
    "accessors": [
        {
            "bufferView": 0,
            "byteOffset": 0,
            "componentType": 5123,
            "count": 192,
            "max": [
                65
            ],
            "min": [
                0
            ],
            "type": "SCALAR"
        },
        {
            "bufferView": 1,
            "byteOffset": 0,
            "componentType": 5126,
            "count": 66,
            "max": [
                1.0,
                1.0,
                0.0
            ],
            "min": [
                -1.0,
                -1.0,
                0.0
            ],
            "type": "VEC3"
        },
        {
            "bufferView": 1,
            "byteOffset": 792,
            "componentType": 5126,
            "count": 66,
            "max": [
                0.0005000000237487257,
                0.0005000000237487257,
                0.0005000000237487257
            ],
            "min": [
                -0.0005000000237487257,
                -0.0005000000237487257,
                -0.0005000000237487257
            ],
            "type": "VEC3"
        },
        {
            "bufferView": 2,
            "byteOffset": 0,
            "componentType": 5126,
            "count": 66,
            "max": [
                0.8535529971122742,
                2.0
            ],
            "min": [
                0.14644700288772584,
                1.0
            ],
            "type": "VEC2"
        },
        {
            "bufferView": 0,
            "byteOffset": 384,
            "componentType": 5123,
            "count": 96,
            "max": [
                33
            ],
            "min": [
                0
            ],
            "type": "SCALAR"
        },
        {
            "bufferView": 1,
            "byteOffset": 1584,
            "componentType": 5126,
            "count": 34,
            "max": [
                0.0,
                0.0,
                -1.0
            ],
            "min": [
                0.0,
                0.0,
                -1.0
            ],
            "type": "VEC3"
        },
        {
            "bufferView": 1,
            "byteOffset": 1992,
            "componentType": 5126,
            "count": 34,
            "max": [
                0.0005000000237487257,
                0.0005000000237487257,
                -0.0005000000237487257
            ],
            "min": [
                -0.0005000000237487257,
                -0.0005000000237487257,
                -0.0005000000237487257
            ],
            "type": "VEC3"
        },
        {
            "bufferView": 2,
            "byteOffset": 528,
            "componentType": 5126,
            "count": 34,
            "max": [
                2.0,
                3.0
            ],
            "min": [
                0.0,
                1.0
            ],
            "type": "VEC2"
        },
        {
            "bufferView": 0,
            "byteOffset": 576,
            "componentType": 5123,
            "count": 96,
            "max": [
                33
            ],
            "min": [
                0
            ],
            "type": "SCALAR"
        },
        {
            "bufferView": 1,
            "byteOffset": 2400,
            "componentType": 5126,
            "count": 34,
            "max": [
                0.0,
                0.0,
                1.0
            ],
            "min": [
                0.0,
                0.0,
                1.0
            ],
            "type": "VEC3"
        },
        {
            "bufferView": 1,
            "byteOffset": 2808,
            "componentType": 5126,
            "count": 34,
            "max": [
                0.0005000000237487257,
                0.0005000000237487257,
                0.0005000000237487257
            ],
            "min": [
                -0.0005000000237487257,
                -0.0005000000237487257,
                0.0005000000237487257
            ],
            "type": "VEC3"
        },
        {
            "bufferView": 2,
            "byteOffset": 800,
            "componentType": 5126,
            "count": 34,
            "max": [
                2.0,
                3.0
            ],
            "min": [
                0.0,
                1.0
            ],
            "type": "VEC2"
        },
        {
            "bufferView": 0,
            "byteOffset": 768,
            "componentType": 5123,
            "count": 192,
            "max": [
                65
            ],
            "min": [
                0
            ],
            "type": "SCALAR"
        },
        {
            "bufferView": 1,
            "byteOffset": 3216,
            "componentType": 5126,
            "count": 66,
            "max": [
                1.0,
                1.0,
                0.0
            ],
            "min": [
                -1.0,
                -1.0,
                0.0
            ],
            "type": "VEC3"
        },
        {
            "bufferView": 1,
            "byteOffset": 4008,
            "componentType": 5126,
            "count": 66,
            "max": [
                0.0005000000237487257,
                0.0005000000237487257,
                0.0005000000237487257
            ],
            "min": [
                -0.0005000000237487257,
                -0.0005000000237487257,
                -0.0005000000237487257
            ],
            "type": "VEC3"
        },
        {
            "bufferView": 2,
            "byteOffset": 1072,
            "componentType": 5126,
            "count": 66,
            "max": [
                1.7071069478988648,
                3.0
            ],
            "min": [
                0.2928929924964905,
                1.0
            ],
            "type": "VEC2"
        },
        {
            "bufferView": 0,
            "byteOffset": 1152,
            "componentType": 5123,
            "count": 138,
            "max": [
                47
            ],
            "min": [
                0
            ],
            "type": "SCALAR"
        },
        {
            "bufferView": 1,
            "byteOffset": 4800,
            "componentType": 5126,
            "count": 48,
            "max": [
                0.0,
                0.0,
                -1.0
            ],
            "min": [
                0.0,
                0.0,
                -1.0
            ],
            "type": "VEC3"
        },
        {
            "bufferView": 1,
            "byteOffset": 5376,
            "componentType": 5126,
            "count": 48,
            "max": [
                0.0005000000237487257,
                0.0005000000237487257,
                163.84100341796876
            ],
            "min": [
                -0.0005000000237487257,
                -0.0005000000237487257,
                163.8400115966797
            ],
            "type": "VEC3"
        },
        {
            "bufferView": 0,
            "byteOffset": 1428,
            "componentType": 5123,
            "count": 312,
            "max": [
                103
            ],
            "min": [
                0
            ],
            "type": "SCALAR"
        },
        {
            "bufferView": 1,
            "byteOffset": 5952,
            "componentType": 5126,
            "count": 104,
            "max": [
                1.0,
                1.0,
                0.00013600000238511711
            ],
            "min": [
                -1.0,
                -1.0,
                -0.0
            ],
            "type": "VEC3"
        },
        {
            "bufferView": 1,
            "byteOffset": 7200,
            "componentType": 5126,
            "count": 104,
            "max": [
                0.0005000000237487257,
                0.0005000000237487257,
                0.0011741860071197153
            ],
            "min": [
                -0.0005000000237487257,
                -0.0005000000237487257,
                0.00017418601782992482
            ],
            "type": "VEC3"
        },
        {
            "bufferView": 0,
            "byteOffset": 2052,
            "componentType": 5123,
            "count": 240,
            "max": [
                71
            ],
            "min": [
                0
            ],
            "type": "SCALAR"
        },
        {
            "bufferView": 1,
            "byteOffset": 8448,
            "componentType": 5126,
            "count": 72,
            "max": [
                0.9238790273666382,
                0.9675379991531372,
                0.9397429823875428
            ],
            "min": [
                -0.9238799810409546,
                -0.9238799810409546,
                0.0
            ],
            "type": "VEC3"
        },
        {
            "bufferView": 1,
            "byteOffset": 9312,
            "componentType": 5126,
            "count": 72,
            "max": [
                0.0005000000237487257,
                0.0005000000237487257,
                0.0010496160248294473
            ],
            "min": [
                -0.0005000000237487257,
                -0.0005000000237487257,
                0.000049616002797847617
            ],
            "type": "VEC3"
        },
        {
            "bufferView": 0,
            "byteOffset": 2532,
            "componentType": 5123,
            "count": 120,
            "max": [
                103
            ],
            "min": [
                0
            ],
            "type": "SCALAR"
        },
        {
            "bufferView": 1,
            "byteOffset": 10176,
            "componentType": 5126,
            "count": 104,
            "max": [
                1.0,
                1.0,
                0.0
            ],
            "min": [
                -1.0,
                -1.0,
                -1.0
            ],
            "type": "VEC3"
        },
        {
            "bufferView": 1,
            "byteOffset": 11424,
            "componentType": 5126,
            "count": 104,
            "max": [
                0.0005000000237487257,
                0.0005000000237487257,
                0.0010000000474974514
            ],
            "min": [
                -0.0005000000237487257,
                -0.0005000000237487257,
                0.0
            ],
            "type": "VEC3"
        }
    ],
    "materials": [
        {
            "pbrMetallicRoughness": {
                "baseColorTexture": {
                    "index": 0
                },
                "metallicFactor": 0.0
            },
            "emissiveFactor": [
                0.0,
                0.0,
                0.0
            ],
            "doubleSided": true,
            "name": "texture1material-effect"
        },
        {
            "pbrMetallicRoughness": {
                "baseColorTexture": {
                    "index": 1
                },
                "metallicFactor": 0.0
            },
            "emissiveFactor": [
                0.0,
                0.0,
                0.0
            ],
            "doubleSided": true,
            "name": "texture0material-effect"
        },
        {
            "pbrMetallicRoughness": {
                "baseColorTexture": {
                    "index": 1
                },
                "metallicFactor": 0.0
            },
            "emissiveFactor": [
                0.0,
                0.0,
                0.0
            ],
            "doubleSided": true,
            "name": "texture0material-effect"
        },
        {
            "pbrMetallicRoughness": {
                "baseColorTexture": {
                    "index": 1
                },
                "metallicFactor": 0.0
            },
            "emissiveFactor": [
                0.0,
                0.0,
                0.0
            ],
            "doubleSided": true,
            "name": "texture0material-effect"
        },
        {
            "pbrMetallicRoughness": {
                "baseColorFactor": [
                    0.5607839822769165,
                    0.5607839822769165,
                    0.5607839822769165,
                    1.0
                ],
                "metallicFactor": 0.0
            },
            "emissiveFactor": [
                0.0,
                0.0,
                0.0
            ],
            "doubleSided": true,
            "name": "color12material-effect"
        },
        {
            "pbrMetallicRoughness": {
                "baseColorFactor": [
                    0.5607839822769165,
                    0.5607839822769165,
                    0.5607839822769165,
                    1.0
                ],
                "metallicFactor": 0.0
            },
            "emissiveFactor": [
                0.0,
                0.0,
                0.0
            ],
            "doubleSided": true,
            "name": "color12material-effect"
        },
        {
            "pbrMetallicRoughness": {
                "baseColorFactor": [
                    0.5607839822769165,
                    0.5607839822769165,
                    0.5607839822769165,
                    1.0
                ],
                "metallicFactor": 0.0
            },
            "emissiveFactor": [
                0.0,
                0.0,
                0.0
            ],
            "doubleSided": true,
            "name": "color12material-effect"
        },
        {
            "pbrMetallicRoughness": {
                "baseColorFactor": [
                    0.03921600058674812,
                    0.03921600058674812,
                    0.03921600058674812,
                    1.0
                ],
                "metallicFactor": 0.0
            },
            "emissiveFactor": [
                0.0,
                0.0,
                0.0
            ],
            "doubleSided": true,
            "name": "color11material-effect"
        }
    ],
    "textures": [
        {
            "sampler": 0,
            "source": 0
        },
        {
            "sampler": 0,
            "source": 1
        }
    ],
    "images": [
        {
            "uri": "data:image/png;base64,"
        },
        {
            "uri": "data:image/png;base64,"
        }
    ],
    "samplers": [
        {
            "magFilter": 9729,
            "minFilter": 9986,
            "wrapS": 10497,
            "wrapT": 10497
        }
    ],
    "bufferViews": [
        {
            "buffer": 0,
            "byteOffset": 14272,
            "byteLength": 2772,
            "target": 34963
        },
        {
            "buffer": 0,
            "byteOffset": 0,
            "byteLength": 12672,
            "byteStride": 12,
            "target": 34962
        },
        {
            "buffer": 0,
            "byteOffset": 12672,
            "byteLength": 1600,
            "byteStride": 8,
            "target": 34962
        }
    ],
    "buffers": [
        {
            "byteLength": 17044,
            "uri": "data:application/octet-stream;base64,"
        }
    ]
}
